{
  "accessors": [
    {
      "bufferView": 2,
      "componentType": 5126,
      "count": 14334,
      "max": [
        8.212455749511719,
        5.609445095062256,
        31.017852783203125
      ],
      "min": [
        -8.088724136352539,
        -5.6256608963012695,
        0.010009000077843666
      ],
      "type": "VEC3"
    },
    {
      "bufferView": 2,
      "byteOffset": 172008,
      "componentType": 5126,
      "count": 14334,
      "max": [
        0.9999816417694092,
        0.9999979734420776,
        0.9999998211860657
      ],
      "min": [
        -0.9999969601631165,
        -0.9999922513961792,
        -1.0
      ],
      "type": "VEC3"
    },
    {
      "bufferView": 1,
      "componentType": 5126,
      "count": 14334,
      "max": [
        0.9921879768371582,
        0.97878497838974
      ],
      "min": [
        0.0078119998797774315,
        0.0067969998344779015
      ],
      "type": "VEC2"
    },
    {
      "bufferView": 1,
      "byteOffset": 114672,
      "componentType": 5126,
      "count": 14334,
      "max": [
        0.9921879768371582,
        0.97878497838974
      ],
      "min": [
        0.0078119998797774315,
        0.0067969998344779015
      ],
      "type": "VEC2"
    },
    {
      "bufferView": 1,
      "byteOffset": 229344,
      "componentType": 5126,
      "count": 14334,
      "max": [
        0.9921879768371582,
        0.97878497838974
      ],
      "min": [
        0.0078119998797774315,
        0.0067969998344779015
      ],
      "type": "VEC2"
    },
    {
      "bufferView": 1,
      "byteOffset": 344016,
      "componentType": 5126,
      "count": 14334,
      "max": [
        0.9921879768371582,
        0.97878497838974
      ],
      "min": [
        0.0078119998797774315,
        0.0067969998344779015
      ],
      "type": "VEC2"
    },
    {
      "bufferView": 1,
      "byteOffset": 458688,
      "componentType": 5126,
      "count": 14334,
      "max": [
        0.9921879768371582,
        0.97878497838974
      ],
      "min": [
        0.0078119998797774315,
        0.0067969998344779015
      ],
      "type": "VEC2"
    },
    {
      "bufferView": 1,
      "byteOffset": 573360,
      "componentType": 5126,
      "count": 14334,
      "max": [
        0.9921879768371582,
        0.97878497838974
      ],
      "min": [
        0.0078119998797774315,
        0.0067969998344779015
      ],
      "type": "VEC2"
    },
    {
      "bufferView": 1,
      "byteOffset": 688032,
      "componentType": 5126,
      "count": 14334,
      "max": [
        0.9921879768371582,
        0.97878497838974
      ],
      "min": [
        0.0078119998797774315,
        0.0067969998344779015
      ],
      "type": "VEC2"
    },
    {
      "bufferView": 1,
      "byteOffset": 802704,
      "componentType": 5126,
      "count": 14334,
      "max": [
        0.9921879768371582,
        0.97878497838974
      ],
      "min": [
        0.0078119998797774315,
        0.0067969998344779015
      ],
      "type": "VEC2"
    },
    {
      "bufferView": 1,
      "byteOffset": 917376,
      "componentType": 5126,
      "count": 14334,
      "max": [
        0.9921879768371582,
        0.97878497838974
      ],
      "min": [
        0.0078119998797774315,
        0.0067969998344779015
      ],
      "type": "VEC2"
    },
    {
      "bufferView": 1,
      "byteOffset": 1032048,
      "componentType": 5126,
      "count": 14334,
      "max": [
        0.9921879768371582,
        0.97878497838974
      ],
      "min": [
        0.0078119998797774315,
        0.0067969998344779015
      ],
      "type": "VEC2"
    },
    {
      "bufferView": 0,
      "componentType": 5125,
      "count": 81210,
      "type": "SCALAR"
    },
    {
      "bufferView": 2,
      "byteOffset": 344016,
      "componentType": 5126,
      "count": 14334,
      "max": [
        8.212455749511719,
        5.609445095062256,
        31.017852783203125
      ],
      "min": [
        -8.088724136352539,
        -5.6256608963012695,
        0.010009000077843666
      ],
      "type": "VEC3"
    },
    {
      "bufferView": 2,
      "byteOffset": 516024,
      "componentType": 5126,
      "count": 14334,
      "max": [
        0.9999816417694092,
        0.9999979734420776,
        0.9999998211860657
      ],
      "min": [
        -0.9999969601631165,
        -0.9999922513961792,
        -1.0
      ],
      "type": "VEC3"
    },
    {
      "bufferView": 1,
      "byteOffset": 1146720,
      "componentType": 5126,
      "count": 14334,
      "max": [
        0.9921879768371582,
        0.97878497838974
      ],
      "min": [
        0.0078119998797774315,
        0.0067969998344779015
      ],
      "type": "VEC2"
    },
    {
      "bufferView": 1,
      "byteOffset": 1261392,
      "componentType": 5126,
      "count": 14334,
      "max": [
        0.9921879768371582,
        0.97878497838974
      ],
      "min": [
        0.0078119998797774315,
        0.0067969998344779015
      ],
      "type": "VEC2"
    },
    {
      "bufferView": 1,
      "byteOffset": 1376064,
      "componentType": 5126,
      "count": 14334,
      "max": [
        0.9921879768371582,
        0.97878497838974
      ],
      "min": [
        0.0078119998797774315,
        0.0067969998344779015
      ],
      "type": "VEC2"
    },
    {
      "bufferView": 1,
      "byteOffset": 1490736,
      "componentType": 5126,
      "count": 14334,
      "max": [
        0.9921879768371582,
        0.97878497838974
      ],
      "min": [
        0.0078119998797774315,
        0.0067969998344779015
      ],
      "type": "VEC2"
    },
    {
      "bufferView": 1,
      "byteOffset": 1605408,
      "componentType": 5126,
      "count": 14334,
      "max": [
        0.9921879768371582,
        0.97878497838974
      ],
      "min": [
        0.0078119998797774315,
        0.0067969998344779015
      ],
      "type": "VEC2"
    },
    {
      "bufferView": 1,
      "byteOffset": 1720080,
      "componentType": 5126,
      "count": 14334,
      "max": [
        0.9921879768371582,
        0.97878497838974
      ],
      "min": [
        0.0078119998797774315,
        0.0067969998344779015
      ],
      "type": "VEC2"
    },
    {
      "bufferView": 1,
      "byteOffset": 1834752,
      "componentType": 5126,
      "count": 14334,
      "max": [
        0.9921879768371582,
        0.97878497838974
      ],
      "min": [
        0.0078119998797774315,
        0.0067969998344779015
      ],
      "type": "VEC2"
    },
    {
      "bufferView": 1,
      "byteOffset": 1949424,
      "componentType": 5126,
      "count": 14334,
      "max": [
        0.9921879768371582,
        0.97878497838974
      ],
      "min": [
        0.0078119998797774315,
        0.0067969998344779015
      ],
      "type": "VEC2"
    },
    {
      "bufferView": 1,
      "byteOffset": 2064096,
      "componentType": 5126,
      "count": 14334,
      "max": [
        0.9921879768371582,
        0.97878497838974
      ],
      "min": [
        0.0078119998797774315,
        0.0067969998344779015
      ],
      "type": "VEC2"
    },
    {
      "bufferView": 1,
      "byteOffset": 2178768,
      "componentType": 5126,
      "count": 14334,
      "max": [
        0.9921879768371582,
        0.97878497838974
      ],
      "min": [
        0.0078119998797774315,
        0.0067969998344779015
      ],
      "type": "VEC2"
    },
    {
      "bufferView": 0,
      "byteOffset": 324840,
      "componentType": 5125,
      "count": 81210,
      "type": "SCALAR"
    }
  ],
  "asset": {
    "extras": {
      "author": "anna.mila.solo (https://sketchfab.com/anna.mila.solo)",
      "license": "CC-BY-4.0 (http://creativecommons.org/licenses/by/4.0/)",
      "source": "https://sketchfab.com/3d-models/project-name1-fdcd76548e034c28adad34d72350981c",
      "title": "Project Name(1)"
    },
    "generator": "Sketchfab-15.42.0",
    "version": "2.0"
  },
  "bufferViews": [
    {
      "buffer": 0,
      "byteLength": 649680,
      "name": "floatBufferViews",
      "target": 34963
    },
    {
      "buffer": 0,
      "byteLength": 2293440,
      "byteOffset": 649680,
      "byteStride": 8,
      "name": "floatBufferViews",
      "target": 34962
    },
    {
      "buffer": 0,
      "byteLength": 688032,
      "byteOffset": 2943120,
      "byteStride": 12,
      "name": "floatBufferViews",
      "target": 34962
    }
  ],
  "buffers": [
    {
      "byteLength": 3631152,
      "uri": "scene.bin"
    }
  ],
  "images": [
    {
      "uri": "textures/Bag_1_baseColor.jpeg"
    }
  ],
  "materials": [
    {
      "doubleSided": true,
      "name": "Bag_1",
      "pbrMetallicRoughness": {
        "baseColorTexture": {
          "index": 0
        },
        "metallicFactor": 0.0,
        "roughnessFactor": 0.6281221075952574
      }
    },
    {
      "doubleSided": true,
      "name": "material",
      "pbrMetallicRoughness": {
        "baseColorTexture": {
          "index": 0
        },
        "metallicFactor": 0.0,
        "roughnessFactor": 0.6281221075952574
      }
    }
  ],
  "meshes": [
    {
      "name": "Bag_Bag 1_0",
      "primitives": [
        {
          "attributes": {
            "NORMAL": 1,
            "POSITION": 0,
            "TEXCOORD_0": 2,
            "TEXCOORD_1": 3,
            "TEXCOORD_2": 4,
            "TEXCOORD_3": 5,
            "TEXCOORD_4": 6,
            "TEXCOORD_5": 7,
            "TEXCOORD_6": 8,
            "TEXCOORD_7": 9,
            "TEXCOORD_8": 10,
            "TEXCOORD_9": 11
          },
          "indices": 12,
          "material": 0,
          "mode": 4
        }
      ]
    },
    {
      "name": "Bag_Bag_0",
      "primitives": [
        {
          "attributes": {
            "NORMAL": 14,
            "POSITION": 13,
            "TEXCOORD_0": 15,
            "TEXCOORD_1": 16,
            "TEXCOORD_2": 17,
            "TEXCOORD_3": 18,
            "TEXCOORD_4": 19,
            "TEXCOORD_5": 20,
            "TEXCOORD_6": 21,
            "TEXCOORD_7": 22,
            "TEXCOORD_8": 23,
            "TEXCOORD_9": 24
          },
          "indices": 25,
          "material": 1,
          "mode": 4
        }
      ]
    }
  ],
  "nodes": [
    {
      "children": [
        1
      ],
      "matrix": [
        1.0,
        0.0,
        0.0,
        0.0,
        0.0,
        2.220446049250313e-16,
        -1.0,
        0.0,
        0.0,
        1.0,
        2.220446049250313e-16,
        0.0,
        0.0,
        0.0,
        0.0,
        1.0
      ],
      "name": "Sketchfab_model"
    },
    {
      "children": [
        2
      ],
      "matrix": [
        0.0010000000474974513,
        0.0,
        0.0,
        0.0,
        0.0,
        -0.0010000000474974513,
        0.0,
        0.0,
        0.0,
        0.0,
        -0.0010000000474974513,
        0.0,
        0.0,
        0.0,
        0.0,
        1.0
      ],
      "name": "Project Name.fbx"
    },
    {
      "children": [
        3,
        7
      ],
      "name": "RootNode"
    },
    {
      "children": [
        4
      ],
      "matrix": [
        1.0,
        0.0,
        0.0,
        0.0,
        0.0,
        1.0,
        0.0,
        0.0,
        0.0,
        0.0,
        1.0,
        0.0,
        -37.683738708496094,
        75.491943359375,
        0.06505849957466125,
        1.0
      ],
      "name": "Coffee Bag 1"
    },
    {
      "children": [
        5
      ],
      "matrix": [
        1.0,
        0.0,
        0.0,
        0.0,
        0.0,
        1.0,
        0.0,
        0.0,
        0.0,
        0.0,
        1.0,
        0.0,
        -0.402127742767334,
        0.052701354026794434,
        -0.06505849957466125,
        1.0
      ],
      "name": "Coffee Bag"
    },
    {
      "children": [
        6
      ],
      "matrix": [
        6.5,
        0.0,
        0.0,
        0.0,
        0.0,
        6.5,
        0.0,
        0.0,
        0.0,
        0.0,
        6.5,
        0.0,
        0.0,
        0.0,
        0.0,
        1.0
      ],
      "name": "Bag"
    },
    {
      "mesh": 0,
      "name": "Bag_Bag 1_0"
    },
    {
      "children": [
        8
      ],
      "matrix": [
        1.0,
        0.0,
        0.0,
        0.0,
        0.0,
        1.0,
        0.0,
        0.0,
        0.0,
        0.0,
        1.0,
        0.0,
        0.402127742767334,
        -0.052701354026794434,
        0.06505849957466125,
        1.0
      ],
      "name": "Coffee Bag"
    },
    {
      "children": [
        9
      ],
      "matrix": [
        1.0,
        0.0,
        0.0,
        0.0,
        0.0,
        1.0,
        0.0,
        0.0,
        0.0,
        0.0,
        1.0,
        0.0,
        -0.402127742767334,
        0.052701354026794434,
        -0.06505849957466125,
        1.0
      ],
      "name": "Coffee Bag"
    },
    {
      "children": [
        10
      ],
      "matrix": [
        6.5,
        0.0,
        0.0,
        0.0,
        0.0,
        6.5,
        0.0,
        0.0,
        0.0,
        0.0,
        6.5,
        0.0,
        0.0,
        0.0,
        0.0,
        1.0
      ],
      "name": "Bag"
    },
    {
      "mesh": 1,
      "name": "Bag_Bag_0"
    }
  ],
  "samplers": [
    {
      "magFilter": 9729,
      "minFilter": 9987,
      "wrapS": 10497,
      "wrapT": 10497
    }
  ],
  "scene": 0,
  "scenes": [
    {
      "name": "Sketchfab_Scene",
      "nodes": [
        0
      ]
    }
  ],
  "textures": [
    {
      "sampler": 0,
      "source": 0
    }
  ]
}
